<?xml version="1.0" encoding="UTF-8" standalone="no"?><!DOCTYPE svg PUBLIC "-//W3C//DTD SVG 1.1//EN" "http://www.w3.org/Graphics/SVG/1.1/DTD/svg11.dtd"><svg width="100%" height="100%" viewBox="0 0 128 128" version="1.1" xmlns="http://www.w3.org/2000/svg" xmlns:xlink="http://www.w3.org/1999/xlink" xml:space="preserve" xmlns:serif="http://www.serif.com/" style="fill-rule:evenodd;clip-rule:evenodd;"><path d="M126,16l0,96c0,7.727 -6.273,14 -14,14l-96,0c-7.727,0 -14,-6.273 -14,-14l0,-96c0,-7.727 6.273,-14 14,-14l96,0c7.727,0 14,6.273 14,14Z" style="stroke:#000;stroke-width:4px;"/><g id="Layer1"><path d="M64.034,6.667c31.801,-0 57.62,25.818 57.62,57.62c-0,31.801 -25.819,57.619 -57.62,57.619c-31.801,0 -57.62,-25.818 -57.62,-57.62c0,-31.801 25.819,-57.619 57.62,-57.619Zm0,16.893c-22.478,-0 -40.727,18.249 -40.727,40.726c0,22.478 18.249,40.727 40.727,40.727c22.478,0 40.727,-18.249 40.727,-40.727c-0,-22.477 -18.249,-40.726 -40.727,-40.726Z" style="fill:#ebebeb;"/></g></svg>